
<!-- Generator: Adobe Illustrator 25.4.1, SVG Export Plug-In . SVG Version: 6.00 Build 0)  -->
<svg xmlns="http://www.w3.org/2000/svg" xmlns:xlink="http://www.w3.org/1999/xlink" 
	 width="149px" height="27px" viewBox="0 0 149 27">

<path d="M127.3,19.2c-1.9,0-3.1-1.5-3.1-3.7s1.2-3.7,3.1-3.7c1.5,0,2.4,1.1,2.7,2.3h4c-0.2-2.9-2.5-5.8-6.7-5.8
	c-4.6,0-7.3,3.1-7.3,7.2c0,4,2.7,7.2,7.3,7.2c4.3,0,6.6-3,6.7-6h-4C129.8,18,128.9,19.2,127.3,19.2z M94.1,26.4v-4.2
	c0-0.4-0.1-0.8-0.3-1.2l-0.4-0.9l0.9-0.5l0.3,0.6c0.7,1.5,2.3,2.4,3.9,2.4c3.7,0,6-3.1,6-7.2c0-4-2.2-7.2-6-7.2
	c-1.6,0-3.2,0.9-3.9,2.4l-0.3,0.6l-0.9-0.5l0.4-0.9c0.2-0.4,0.3-0.7,0.3-0.9V8.8h-4v17.7H94.1z M139.2,14.1h5.8
	c-0.1-1.6-1.2-2.6-2.8-2.6C140.2,11.6,139.5,12.6,139.2,14.1z M148.9,16.6H139c0.3,1.7,1.4,2.9,3.1,2.9c1.3,0,2.1-0.6,2.4-1.6h4.2
	c-0.5,2.6-2.7,4.9-6.6,4.9c-4.7,0-7.2-3.3-7.2-7.2s2.6-7.2,7.2-7.2c3.5,0,6.9,2.4,6.9,6.8C149,15.5,149,16.2,148.9,16.6z
	 M111.5,19.9c-1.1,0.2-2.2-0.3-2.2-1.4c0-1.2,0.9-1.6,1.8-1.7c1.9-0.2,2.9-0.3,3.5-1C114.6,18.5,112.7,19.6,111.5,19.9z M112.4,8.4
	c-3,0-6.4,1.3-6.8,4.9h4c0.2-1,0.8-1.9,2.7-1.9c1.9,0,2.3,1,2.3,1.7c0,1.2-1.7,1-4.1,1.2c-2.9,0.2-5.3,1.3-5.3,4.4c0,2.2,2,4,4.7,4
	c2,0,3.6-0.8,4.3-2.3l0.2-0.4l0.9,0.5l-0.5,1.1c-0.1,0.3-0.2,0.5-0.2,0.6v0.1h4.1v-7.5C118.7,9.4,115.6,8.4,112.4,8.4z M97.3,19.2
	c-2,0-3.2-1.7-3.2-3.7s1.2-3.7,3.2-3.7c2,0,3,1.7,3,3.7S99.4,19.2,97.3,19.2z M70.1,10.7l-0.3,0.6l-0.9-0.5l0.4-0.9
	c0.2-0.4,0.3-0.8,0.3-1.1V8.8h-4v13.6h4.1V17c0-3.3,1.1-4.7,4.6-4.6V8.6C71.9,8.6,70.8,9.2,70.1,10.7z M59.5,8.8v5.5
	c0,3.2-1.5,5-3.1,5c-1.4,0-2-0.7-2-3.3V8.8h-4V17c0,3.9,1.9,5.8,4.8,5.8c1.9,0,3.3-1.1,3.9-2.4l0.3-0.6l0.9,0.5l-0.4,0.9
	c-0.2,0.4-0.3,0.7-0.3,0.9v0.3h4V8.8H59.5z M84.7,15.5c0-2-1-3.7-3.1-3.7c-2,0-3.1,1.7-3.1,3.7c0,2,1,3.7,3.1,3.7
	S84.7,17.6,84.7,15.5z M88.9,15.5c0,4.1-2.7,7.2-7.3,7.2s-7.3-3.1-7.3-7.2c0-4.1,2.7-7.2,7.3-7.2S88.9,11.5,88.9,15.5z M39.6,8v3.6
	h7.6V15h-7.6v3.6h9.2v3.7H35.3V4.3h13.6V8H39.6z M21.7,15.4l-6.9,1.3l-0.6-1.4l5.8-4l-5.8-4l0.6-1.4l6.9,1.3l-1.3-6.9H0v21.8h20.5
	L21.7,15.4z"/>
</svg>
